<svg width="18" height="18" viewBox="0 0 18 18" fill="none" xmlns="http://www.w3.org/2000/svg">
<path d="M5.8 9H9M5.8 9C3.15111 9 1 11.1422 1 13.8M5.8 9V5.8M5.8 9C3.15111 9 1 6.84889 1 4.2V1H4.2M9 9V12.2M9 9V5.8M9 9H12.2M9 12.2H5.8M9 12.2C9 14.8489 6.84889 17 4.2 17H1V13.8M9 12.2C9 14.8489 11.1511 17 13.8 17M5.8 12.2C4.92 12.2 4.2 12.92 4.2 13.8M5.8 12.2C5.8 13.08 5.08 13.8 4.2 13.8M4.2 13.8H1M9 5.8C9 3.14222 6.84889 1 4.2 1M9 5.8H12.2M9 5.8C9 3.14222 11.1511 1 13.8 1H17V4.2M5.8 5.8C5.8 4.92 5.08 4.2 4.2 4.2M5.8 5.8C4.92 5.8 4.2 5.08 4.2 4.2M4.2 4.2V1M12.2 9C14.8489 9 17 6.84889 17 4.2M12.2 9V12.2M12.2 9C14.8489 9 17 11.1422 17 13.8V17H13.8M12.2 5.8C13.08 5.8 13.8 5.08 13.8 4.2M12.2 5.8C12.2 4.92 12.92 4.2 13.8 4.2M13.8 4.2H17M12.2 12.2C12.2 13.08 12.92 13.8 13.8 13.8M12.2 12.2C13.08 12.2 13.8 12.92 13.8 13.8M13.8 13.8V17" stroke="#FA9F42" stroke-miterlimit="10"/>
</svg>
