<svg width="16" height="16" viewBox="0 0 16 16" fill="none" xmlns="http://www.w3.org/2000/svg">
<path d="M0.525549 15.5C0.775746 13.0656 2.83279 11.1667 5.33333 11.1667C7.83388 11.1667 9.89092 13.0656 10.1411 15.5H0.525549ZM15.5 11.1922V15.5H11.1922C11.4255 13.2299 13.2299 11.4255 15.5 11.1922ZM15.5 10.1411C13.0656 9.89092 11.1667 7.83388 11.1667 5.33333C11.1667 2.83279 13.0656 0.775746 15.5 0.525549V10.1411ZM10.1667 5.33333C10.1667 8.00271 8.00271 10.1667 5.33333 10.1667C2.66396 10.1667 0.5 8.00271 0.5 5.33333C0.5 2.66396 2.66396 0.5 5.33333 0.5C8.00271 0.5 10.1667 2.66396 10.1667 5.33333Z" stroke="#FA9F42"/>
</svg>
