<svg width="20" height="18" viewBox="0 0 20 18" fill="none" xmlns="http://www.w3.org/2000/svg">
<path d="M19 8.46918C19 13.1801 14.9722 17 10.005 17C5.03776 17 1.00999 13.1801 1.00999 8.46918M1 8.46919C1 4.34596 4.52803 1 8.87562 1C13.2232 1 16.7512 4.34596 16.7512 8.46918C16.7512 12.0047 13.7329 14.8673 10.005 14.8673C6.27707 14.8673 3.25874 12.0047 3.25874 8.46918C3.25874 5.52131 5.77734 3.14219 8.87562 3.14219C11.9839 3.14219 14.4925 5.53079 14.4925 8.46918M14.5025 8.46918C14.5025 10.8294 12.4936 12.7346 10.005 12.7346C7.51638 12.7346 5.50749 10.8294 5.50749 8.46918C5.50749 6.70615 7.01666 5.26541 8.88562 5.26541C10.7446 5.26541 12.2637 6.69667 12.2637 8.46918M12.2537 8.46918C12.2537 9.64454 11.2443 10.6019 10.005 10.6019C8.76568 10.6019 7.75624 9.64454 7.75624 8.46918C7.75624 7.88151 8.25596 7.4076 8.87562 7.4076C9.49527 7.4076 9.995 7.88151 9.995 8.46918" stroke="#FA9F42" stroke-miterlimit="10"/>
</svg>
