<svg width="16" height="16" viewBox="0 0 16 16" fill="none" xmlns="http://www.w3.org/2000/svg">
<path d="M16 16V0.0041222H14.773V16H16Z" fill="#FA9F42"/>
<path d="M3.68914 13.9971V2.00018H2.46218V13.9971H3.68914Z" fill="#FA9F42"/>
<path d="M1.22697 15.9959V0H0V15.9959H1.22697Z" fill="#FA9F42"/>
<path d="M6.15132 11.9983V4.00032H4.92436V11.9983H6.15132Z" fill="#FA9F42"/>
<path d="M8.6135 9.99951V6.00054H7.38654V9.99951H8.6135Z" fill="#FA9F42"/>
<path d="M11.0756 11.9996V4.0017H9.84867V11.9996H11.0756Z" fill="#FA9F42"/>
<path d="M13.5378 13.9998V2.00291H12.3109V13.9998H13.5378Z" fill="#FA9F42"/>
<path d="M16 16V0.0041222H14.773V16H16Z" fill="#FA9F42"/>
<path d="M3.68914 13.9971V2.00018H2.46218V13.9971H3.68914Z" fill="#FA9F42"/>
<path d="M1.22697 15.9959V0H0V15.9959H1.22697Z" fill="#FA9F42"/>
<path d="M6.15132 11.9983V4.00032H4.92436V11.9983H6.15132Z" fill="#FA9F42"/>
<path d="M8.6135 9.99951V6.00054H7.38654V9.99951H8.6135Z" fill="#FA9F42"/>
<path d="M11.0756 11.9996V4.0017H9.84867V11.9996H11.0756Z" fill="#FA9F42"/>
<path d="M13.5378 13.9998V2.00291H12.3109V13.9998H13.5378Z" fill="#FA9F42"/>
</svg>
