<svg width="28" height="22" viewBox="0 0 28 22" fill="none" xmlns="http://www.w3.org/2000/svg">
<path d="M0 9.26316C0 4.14726 4.17868 0 9.33333 0H28V1.15789C28 6.2738 23.8213 10.4211 18.6667 10.4211H0V9.26316Z" fill="#FA9F42"/>
<path d="M0 18.5263C0 15.3289 2.61167 12.7368 5.83333 12.7368H7C9.57733 12.7368 11.6667 14.8105 11.6667 17.3684C11.6667 19.9264 9.57733 22 7 22H0V18.5263Z" fill="#FA9F42"/>
<path d="M16.3333 18.5263C16.3333 15.3289 18.945 12.7368 22.1667 12.7368H23.3333C25.9107 12.7368 28 14.8105 28 17.3684C28 19.9264 25.9107 22 23.3333 22H16.3333V18.5263Z" fill="#FA9F42"/>
</svg>
